<svg xmlns="http://www.w3.org/2000/svg" width="249" height="196" viewBox="0 0 249 196"><g><g><g transform="rotate(22 93.5 37.5)"><g><path d="M77.384 52.495c0 1.042-.847 1.89-1.889 1.89a1.891 1.891 0 0 1-1.89-1.89c0-1.042.848-1.89 1.89-1.89 1.042 0 1.89.848 1.89 1.89zM72 52.5c0 1.93 1.57 3.5 3.5 3.5s3.5-1.57 3.5-3.5-1.57-3.5-3.5-3.5-3.5 1.57-3.5 3.5z"/></g><g><path d="M118.3 31.567c0 2.184-.686 4.265-1.932 5.98v-8.54c0-1.93-1.044-3.7-2.725-4.623a5.18 5.18 0 0 0-4.816-.091c-6.092 3.06-10.062 5.837-11.887 7.22a.862.862 0 0 0-.169 1.2.845.845 0 0 0 1.19.17c1.778-1.348 5.653-4.058 11.624-7.057a3.491 3.491 0 0 1 3.246.064c.36.197.676.453.94.75l-6.504 6.9-12.693 1.701v-4.334c1.345-1.118 7.46-5.928 18.572-10.788a3.598 3.598 0 0 1 3.485.305 3.724 3.724 0 0 1 1.67 3.114v8.03zm-12.152 9.908l-3.338-.722 11.779-12.493c.052.243.08.493.08.747v10.357l-.099.083a9.941 9.941 0 0 1-8.422 2.028zm5.977 13.193c-1.115 2.247-3.267 3.6-5.759 3.618-2.488.02-4.664-1.302-5.81-3.533L94.574 43.12v-2.394l11.218 2.424c.147.032.294.06.442.086l4.178 3.423a6.544 6.544 0 0 1 1.713 8.009zm-21.13-7.617c-1.03 0-1.87-.848-1.87-1.89V30.508c0-1.043.84-1.89 1.87-1.89 1.03 0 1.87.847 1.87 1.89V45.16c0 1.042-.84 1.89-1.87 1.89zm-9.857-6.719l-4.54-4.814 10.828 1.452v2.003zm-5.286 1.143a9.941 9.941 0 0 1-8.422-2.028l-.099-.083V29.007c0-.254.028-.504.08-.747l11.78 12.493zm-12.153-9.908v-8.029c0-1.258.625-2.422 1.67-3.114a3.598 3.598 0 0 1 3.485-.305c11.112 4.86 17.227 9.67 18.572 10.788v4.334L74.733 33.54l-6.504-6.898c.264-.298.58-.554.94-.751a3.491 3.491 0 0 1 3.246-.063c5.97 2.998 9.846 5.708 11.624 7.056a.845.845 0 0 0 1.19-.17.862.862 0 0 0-.169-1.2c-1.825-1.383-5.795-4.16-11.887-7.22a5.179 5.179 0 0 0-4.816.092 5.266 5.266 0 0 0-2.725 4.622v8.54a10.147 10.147 0 0 1-1.933-5.98zm30.875 7.406V36.97l10.827-1.452-4.54 4.814zm22.99-19.982a5.327 5.327 0 0 0-5.094-.445c-10.001 4.375-15.948 8.634-18.234 10.434a3.616 3.616 0 0 0-1.326-1.515c2.64-7.424 7.568-10.844 7.643-10.896a.861.861 0 0 0 .235-1.187.845.845 0 0 0-1.179-.238c-.227.153-5.473 3.753-8.31 11.774a3.582 3.582 0 0 0-.598 0c-2.837-8.021-8.083-11.621-8.31-11.774a.845.845 0 0 0-1.177.237.862.862 0 0 0 .233 1.188c.05.034 4.996 3.453 7.643 10.896a3.62 3.62 0 0 0-1.326 1.515c-2.286-1.8-8.233-6.059-18.234-10.434a5.327 5.327 0 0 0-5.093.445A5.437 5.437 0 0 0 62 23.538v8.03c0 3.594 1.59 6.952 4.362 9.211a11.64 11.64 0 0 0 6.53 2.605l-2.375 1.945A8.299 8.299 0 0 0 67.675 50a8.351 8.351 0 0 0 .68 5.435c1.386 2.793 4.17 4.543 7.267 4.566h.061c3.072 0 5.854-1.704 7.27-4.458l3.353-6.52a.86.86 0 0 0-.364-1.155.846.846 0 0 0-1.145.366l-3.352 6.52c-1.14 2.216-3.29 3.533-5.76 3.533h-.051c-2.492-.018-4.644-1.37-5.759-3.618a6.544 6.544 0 0 1 1.713-8.009l4.179-3.423c.147-.026.294-.054.44-.086l11.22-2.424v4.435a3.604 3.604 0 0 0 2.723 3.5v8.404c0 .473.38.857.85.857s.85-.384.85-.857v-8.404a3.599 3.599 0 0 0 2.502-2.25l4.695 9.131c1.416 2.754 4.197 4.458 7.27 4.458h.062c3.096-.023 5.88-1.773 7.265-4.566a8.351 8.351 0 0 0 .681-5.435 8.3 8.3 0 0 0-2.842-4.67l-2.374-1.946a11.642 11.642 0 0 0 6.53-2.604A11.832 11.832 0 0 0 120 31.567v-8.029a5.436 5.436 0 0 0-2.437-4.547z"/></g><g><path d="M108.384 52.495c0 1.042-.847 1.89-1.889 1.89a1.891 1.891 0 0 1-1.89-1.89c0-1.042.848-1.89 1.89-1.89 1.042 0 1.89.848 1.89 1.89zM103 52.5c0 1.93 1.57 3.5 3.5 3.5s3.5-1.57 3.5-3.5-1.57-3.5-3.5-3.5-3.5 1.57-3.5 3.5z"/></g></g><g transform="rotate(22 218.5 27.5)"><g><path d="M202.384 42.495c0 1.042-.847 1.89-1.889 1.89a1.891 1.891 0 0 1-1.89-1.89c0-1.042.848-1.89 1.89-1.89 1.042 0 1.89.848 1.89 1.89zM197 42.5c0 1.93 1.57 3.5 3.5 3.5s3.5-1.57 3.5-3.5-1.57-3.5-3.5-3.5-3.5 1.57-3.5 3.5z"/></g><g><path d="M243.3 21.567c0 2.184-.686 4.265-1.932 5.98v-8.54c0-1.93-1.044-3.7-2.725-4.623a5.18 5.18 0 0 0-4.816-.091c-6.092 3.06-10.062 5.837-11.887 7.22a.862.862 0 0 0-.169 1.2.845.845 0 0 0 1.19.17c1.778-1.348 5.653-4.058 11.624-7.057a3.491 3.491 0 0 1 3.246.064c.36.197.676.453.94.75l-6.504 6.9-12.693 1.701v-4.334c1.345-1.118 7.46-5.928 18.572-10.788a3.598 3.598 0 0 1 3.485.305 3.724 3.724 0 0 1 1.67 3.114v8.03zm-12.152 9.908l-3.338-.722 11.779-12.493c.052.243.08.493.08.747v10.357l-.099.083a9.941 9.941 0 0 1-8.422 2.028zm5.977 13.193c-1.115 2.247-3.267 3.6-5.759 3.618-2.488.02-4.664-1.302-5.81-3.533l-5.982-11.633v-2.394l11.218 2.424c.147.032.294.06.441.086l4.179 3.423a6.544 6.544 0 0 1 1.713 8.009zm-21.13-7.617c-1.03 0-1.87-.848-1.87-1.89V20.508c0-1.043.84-1.89 1.87-1.89 1.03 0 1.87.847 1.87 1.89V35.16c0 1.042-.84 1.89-1.87 1.89zm-9.857-6.719l-4.54-4.814 10.828 1.452v2.003zm-5.286 1.143a9.941 9.941 0 0 1-8.422-2.028l-.099-.083V19.007c0-.254.028-.504.08-.747l11.78 12.493zm-12.153-9.908v-8.029c0-1.258.625-2.422 1.67-3.114a3.598 3.598 0 0 1 3.485-.305c11.112 4.86 17.227 9.67 18.572 10.788v4.334l-12.693-1.702-6.504-6.898c.264-.298.58-.554.94-.751a3.491 3.491 0 0 1 3.246-.063c5.97 2.998 9.846 5.708 11.624 7.056a.845.845 0 0 0 1.19-.17.862.862 0 0 0-.169-1.2c-1.825-1.383-5.795-4.16-11.887-7.22a5.179 5.179 0 0 0-4.816.092 5.266 5.266 0 0 0-2.725 4.622v8.54a10.147 10.147 0 0 1-1.933-5.98zm30.875 7.406V26.97l10.827-1.452-4.54 4.814zm22.99-19.982a5.327 5.327 0 0 0-5.094-.445c-10.001 4.375-15.948 8.634-18.234 10.434a3.616 3.616 0 0 0-1.326-1.515c2.64-7.424 7.568-10.844 7.643-10.896a.861.861 0 0 0 .235-1.187.845.845 0 0 0-1.179-.238c-.227.153-5.473 3.753-8.31 11.774a3.582 3.582 0 0 0-.598 0c-2.837-8.021-8.083-11.621-8.31-11.774a.845.845 0 0 0-1.177.237.862.862 0 0 0 .233 1.188c.05.034 4.996 3.453 7.643 10.896a3.62 3.62 0 0 0-1.326 1.515c-2.286-1.8-8.233-6.059-18.234-10.434a5.327 5.327 0 0 0-5.093.445A5.437 5.437 0 0 0 187 13.538v8.03c0 3.594 1.59 6.952 4.362 9.211a11.64 11.64 0 0 0 6.53 2.605l-2.375 1.945a8.299 8.299 0 0 0-2.842 4.67 8.351 8.351 0 0 0 .68 5.435c1.386 2.793 4.17 4.543 7.266 4.566h.062c3.072 0 5.854-1.704 7.27-4.458l3.353-6.52a.86.86 0 0 0-.364-1.155.846.846 0 0 0-1.145.366l-3.352 6.52c-1.14 2.216-3.29 3.533-5.76 3.533h-.051c-2.492-.018-4.644-1.37-5.759-3.618a6.544 6.544 0 0 1 1.713-8.009l4.179-3.423c.147-.026.294-.054.44-.086l11.22-2.424v4.435a3.604 3.604 0 0 0 2.723 3.5v8.404c0 .473.38.857.85.857s.85-.384.85-.857v-8.404a3.599 3.599 0 0 0 2.502-2.25l4.695 9.131c1.416 2.754 4.197 4.458 7.27 4.458h.061c3.097-.023 5.881-1.773 7.266-4.566a8.351 8.351 0 0 0 .68-5.435 8.3 8.3 0 0 0-2.84-4.67l-2.375-1.946a11.642 11.642 0 0 0 6.53-2.604A11.832 11.832 0 0 0 245 21.567v-8.029a5.436 5.436 0 0 0-2.437-4.547z"/></g><g><path d="M233.384 42.495c0 1.042-.847 1.89-1.889 1.89a1.891 1.891 0 0 1-1.89-1.89c0-1.042.848-1.89 1.89-1.89 1.042 0 1.89.848 1.89 1.89zM228 42.5c0 1.93 1.57 3.5 3.5 3.5s3.5-1.57 3.5-3.5-1.57-3.5-3.5-3.5-3.5 1.57-3.5 3.5z"/></g></g><g transform="rotate(22 117.5 168.5)"><g><path d="M101.384 183.495c0 1.042-.847 1.89-1.889 1.89a1.891 1.891 0 0 1-1.89-1.89c0-1.042.848-1.89 1.89-1.89 1.042 0 1.89.848 1.89 1.89zM96 183.5c0 1.93 1.57 3.5 3.5 3.5s3.5-1.57 3.5-3.5-1.57-3.5-3.5-3.5-3.5 1.57-3.5 3.5z"/></g><g><path d="M142.3 162.567c0 2.184-.686 4.265-1.932 5.98v-8.54c0-1.93-1.044-3.7-2.725-4.623a5.18 5.18 0 0 0-4.816-.091c-6.092 3.06-10.062 5.837-11.887 7.22a.862.862 0 0 0-.169 1.2.845.845 0 0 0 1.19.17c1.778-1.348 5.653-4.058 11.624-7.057a3.491 3.491 0 0 1 3.246.064c.36.197.676.453.94.75l-6.504 6.9-12.693 1.701v-4.334c1.345-1.118 7.46-5.928 18.572-10.789a3.598 3.598 0 0 1 3.485.306 3.724 3.724 0 0 1 1.67 3.114v8.03zm-12.152 9.908l-3.338-.722 11.779-12.493c.052.243.08.493.08.747v10.357l-.099.083a9.941 9.941 0 0 1-8.422 2.028zm5.977 13.193c-1.115 2.247-3.267 3.6-5.759 3.618-2.488.02-4.664-1.302-5.81-3.533l-5.982-11.633v-2.394l11.218 2.424c.147.032.294.06.442.086l4.178 3.423a6.544 6.544 0 0 1 1.713 8.009zm-21.13-7.617c-1.03 0-1.87-.848-1.87-1.89v-14.652c0-1.043.84-1.89 1.87-1.89 1.03 0 1.87.847 1.87 1.89v14.651c0 1.043-.84 1.891-1.87 1.891zm-9.857-6.719l-4.54-4.814 10.828 1.452v2.003zm-5.286 1.143a9.941 9.941 0 0 1-8.422-2.028l-.099-.083v-10.357c0-.254.028-.504.08-.747l11.78 12.493zm-12.153-9.908v-8.029c0-1.258.625-2.422 1.67-3.114a3.598 3.598 0 0 1 3.485-.305c11.112 4.86 17.227 9.67 18.572 10.788v4.334l-12.693-1.702-6.504-6.898c.264-.298.58-.554.94-.751a3.491 3.491 0 0 1 3.246-.063c5.97 2.998 9.846 5.708 11.624 7.056a.845.845 0 0 0 1.19-.17.862.862 0 0 0-.169-1.2c-1.825-1.383-5.795-4.16-11.887-7.22a5.179 5.179 0 0 0-4.816.092 5.266 5.266 0 0 0-2.725 4.622v8.54a10.147 10.147 0 0 1-1.933-5.98zm30.875 7.406v-2.003l10.827-1.452-4.54 4.814zm22.99-19.982a5.327 5.327 0 0 0-5.094-.445c-10.001 4.375-15.948 8.634-18.234 10.434a3.616 3.616 0 0 0-1.326-1.515c2.64-7.424 7.568-10.844 7.643-10.896a.861.861 0 0 0 .235-1.187.845.845 0 0 0-1.179-.238c-.227.153-5.473 3.753-8.31 11.774a3.582 3.582 0 0 0-.598 0c-2.837-8.021-8.083-11.621-8.31-11.774a.845.845 0 0 0-1.177.237.862.862 0 0 0 .233 1.188c.05.034 4.996 3.453 7.643 10.896a3.62 3.62 0 0 0-1.326 1.515c-2.286-1.8-8.233-6.059-18.234-10.434a5.327 5.327 0 0 0-5.093.445A5.437 5.437 0 0 0 86 154.538v8.03c0 3.594 1.59 6.952 4.362 9.211a11.64 11.64 0 0 0 6.53 2.605l-2.375 1.945a8.299 8.299 0 0 0-2.842 4.67 8.351 8.351 0 0 0 .68 5.435c1.386 2.793 4.17 4.543 7.267 4.566h.061c3.072 0 5.854-1.704 7.27-4.458l3.353-6.52a.86.86 0 0 0-.364-1.155.846.846 0 0 0-1.145.366l-3.352 6.52c-1.14 2.216-3.29 3.533-5.76 3.533h-.051c-2.492-.018-4.644-1.37-5.759-3.618a6.544 6.544 0 0 1 1.713-8.009l4.179-3.423c.147-.026.294-.054.44-.086l11.22-2.424v4.435a3.604 3.604 0 0 0 2.723 3.5v8.404c0 .473.38.857.85.857s.85-.384.85-.857v-8.404a3.599 3.599 0 0 0 2.502-2.25l4.695 9.131c1.416 2.754 4.197 4.458 7.27 4.458h.062c3.096-.023 5.88-1.773 7.265-4.566a8.351 8.351 0 0 0 .681-5.435 8.3 8.3 0 0 0-2.842-4.67l-2.374-1.946a11.642 11.642 0 0 0 6.53-2.604 11.832 11.832 0 0 0 4.361-9.212v-8.029a5.436 5.436 0 0 0-2.437-4.547z"/></g><g><path d="M132.384 183.495c0 1.042-.847 1.89-1.889 1.89a1.891 1.891 0 0 1-1.89-1.89c0-1.042.848-1.89 1.89-1.89 1.042 0 1.89.848 1.89 1.89zM127 183.5c0 1.93 1.57 3.5 3.5 3.5s3.5-1.57 3.5-3.5-1.57-3.5-3.5-3.5-3.5 1.57-3.5 3.5z"/></g></g><g transform="rotate(-13 30 91.5)"><g><path d="M18.384 105.495c0 1.042-.847 1.89-1.889 1.89a1.891 1.891 0 0 1-1.89-1.89c0-1.042.848-1.89 1.89-1.89 1.042 0 1.89.848 1.89 1.89zM13 105.5c0 1.93 1.57 3.5 3.5 3.5s3.5-1.57 3.5-3.5-1.57-3.5-3.5-3.5-3.5 1.57-3.5 3.5z"/></g><g><path d="M59.3 84.567c0 2.184-.686 4.265-1.932 5.98v-8.54c0-1.93-1.044-3.7-2.725-4.623a5.18 5.18 0 0 0-4.816-.091c-6.092 3.06-10.062 5.837-11.887 7.22a.862.862 0 0 0-.169 1.2.845.845 0 0 0 1.19.17c1.778-1.348 5.653-4.058 11.624-7.057a3.491 3.491 0 0 1 3.246.064c.36.197.676.453.94.75l-6.504 6.9-12.693 1.701v-4.334c1.345-1.118 7.46-5.928 18.572-10.788a3.598 3.598 0 0 1 3.485.305 3.724 3.724 0 0 1 1.67 3.114v8.03zm-12.152 9.908l-3.338-.722L55.589 81.26c.052.243.08.493.08.747v10.357l-.099.083a9.941 9.941 0 0 1-8.422 2.028zm5.977 13.193c-1.115 2.247-3.267 3.6-5.759 3.618-2.488.02-4.664-1.302-5.81-3.533L35.573 96.12v-2.394l11.218 2.424c.147.032.294.06.442.086l4.178 3.423a6.544 6.544 0 0 1 1.713 8.009zm-21.13-7.617c-1.03 0-1.87-.848-1.87-1.89V83.508c0-1.043.84-1.89 1.87-1.89 1.03 0 1.87.847 1.87 1.89V98.16c0 1.042-.84 1.89-1.87 1.89zm-9.857-6.719l-4.54-4.814 10.828 1.452v2.003zm-5.286 1.143a9.941 9.941 0 0 1-8.422-2.028l-.099-.083V82.007c0-.254.028-.504.08-.747l11.78 12.493zM4.699 84.567v-8.029c0-1.258.625-2.422 1.67-3.114a3.598 3.598 0 0 1 3.485-.305c11.112 4.86 17.227 9.67 18.572 10.788v4.334L15.733 86.54l-6.504-6.898c.264-.298.58-.554.94-.751a3.491 3.491 0 0 1 3.246-.063c5.97 2.998 9.846 5.708 11.624 7.056a.845.845 0 0 0 1.19-.17.862.862 0 0 0-.169-1.2c-1.825-1.383-5.795-4.16-11.887-7.22a5.179 5.179 0 0 0-4.816.092 5.266 5.266 0 0 0-2.725 4.622v8.54a10.147 10.147 0 0 1-1.933-5.98zm30.875 7.406V89.97L46.4 88.518l-4.54 4.814zm22.99-19.982a5.327 5.327 0 0 0-5.094-.445C43.469 75.921 37.522 80.18 35.236 81.98a3.616 3.616 0 0 0-1.326-1.515c2.64-7.424 7.568-10.844 7.643-10.896a.861.861 0 0 0 .235-1.187.845.845 0 0 0-1.179-.238c-.227.153-5.473 3.753-8.31 11.774a3.582 3.582 0 0 0-.598 0c-2.837-8.021-8.083-11.621-8.31-11.774a.845.845 0 0 0-1.177.237.862.862 0 0 0 .233 1.188c.05.034 4.996 3.453 7.643 10.896a3.62 3.62 0 0 0-1.326 1.515c-2.286-1.8-8.233-6.059-18.234-10.434a5.327 5.327 0 0 0-5.093.445A5.437 5.437 0 0 0 3 76.538v8.03c0 3.594 1.59 6.952 4.362 9.211a11.64 11.64 0 0 0 6.53 2.605l-2.375 1.945A8.299 8.299 0 0 0 8.675 103a8.351 8.351 0 0 0 .68 5.435c1.386 2.793 4.17 4.543 7.267 4.566h.061c3.072 0 5.854-1.704 7.27-4.458l3.353-6.52a.86.86 0 0 0-.364-1.155.846.846 0 0 0-1.145.366l-3.352 6.52c-1.14 2.216-3.29 3.533-5.76 3.533h-.051c-2.492-.018-4.644-1.37-5.759-3.618a6.544 6.544 0 0 1 1.713-8.009l4.179-3.423c.147-.026.294-.054.44-.086l11.22-2.424v4.435a3.604 3.604 0 0 0 2.723 3.5v8.404c0 .473.38.857.85.857s.85-.384.85-.857v-8.404a3.599 3.599 0 0 0 2.502-2.25l4.695 9.131c1.416 2.754 4.197 4.458 7.27 4.458h.062c3.096-.023 5.88-1.773 7.265-4.566a8.351 8.351 0 0 0 .681-5.435 8.3 8.3 0 0 0-2.842-4.67l-2.374-1.946a11.642 11.642 0 0 0 6.53-2.604A11.832 11.832 0 0 0 61 84.567v-8.029a5.436 5.436 0 0 0-2.437-4.547z"/></g><g><path d="M49.384 105.495c0 1.042-.847 1.89-1.889 1.89a1.891 1.891 0 0 1-1.89-1.89c0-1.042.848-1.89 1.89-1.89 1.042 0 1.89.848 1.89 1.89zM44 105.5c0 1.93 1.57 3.5 3.5 3.5s3.5-1.57 3.5-3.5-1.57-3.5-3.5-3.5-3.5 1.57-3.5 3.5z"/></g></g><g transform="rotate(-13 181 125.5)"><g><path d="M169.384 139.495c0 1.042-.847 1.89-1.889 1.89a1.891 1.891 0 0 1-1.89-1.89c0-1.042.848-1.89 1.89-1.89 1.042 0 1.89.848 1.89 1.89zM164 139.5c0 1.93 1.57 3.5 3.5 3.5s3.5-1.57 3.5-3.5-1.57-3.5-3.5-3.5-3.5 1.57-3.5 3.5z"/></g><g><path d="M210.3 118.567c0 2.184-.686 4.265-1.932 5.98v-8.54c0-1.93-1.044-3.7-2.725-4.623a5.18 5.18 0 0 0-4.816-.091c-6.092 3.06-10.062 5.837-11.887 7.22a.862.862 0 0 0-.169 1.2.845.845 0 0 0 1.19.17c1.778-1.348 5.653-4.058 11.624-7.057a3.491 3.491 0 0 1 3.246.064c.36.197.676.453.94.75l-6.504 6.9-12.693 1.701v-4.334c1.345-1.118 7.46-5.928 18.572-10.788a3.598 3.598 0 0 1 3.485.305 3.724 3.724 0 0 1 1.67 3.114v8.03zm-12.152 9.908l-3.338-.722 11.779-12.493c.052.243.08.493.08.747v10.357l-.099.083a9.941 9.941 0 0 1-8.422 2.028zm5.977 13.193c-1.115 2.247-3.267 3.6-5.759 3.618-2.488.02-4.664-1.302-5.81-3.533l-5.982-11.633v-2.394l11.218 2.424c.147.032.294.06.441.086l4.179 3.423a6.544 6.544 0 0 1 1.713 8.009zm-21.13-7.617c-1.03 0-1.87-.848-1.87-1.89v-14.652c0-1.043.84-1.89 1.87-1.89 1.03 0 1.87.847 1.87 1.89v14.651c0 1.043-.84 1.891-1.87 1.891zm-9.857-6.719l-4.54-4.814 10.828 1.452v2.003zm-5.286 1.143a9.941 9.941 0 0 1-8.422-2.028l-.099-.083v-10.357c0-.254.028-.504.08-.747l11.78 12.493zm-12.153-9.908v-8.029c0-1.258.625-2.422 1.67-3.114a3.598 3.598 0 0 1 3.485-.305c11.112 4.86 17.227 9.67 18.572 10.788v4.334l-12.693-1.702-6.504-6.898c.264-.298.58-.554.94-.751a3.491 3.491 0 0 1 3.246-.063c5.97 2.998 9.846 5.708 11.624 7.056a.845.845 0 0 0 1.19-.17.862.862 0 0 0-.169-1.2c-1.825-1.383-5.795-4.16-11.887-7.22a5.179 5.179 0 0 0-4.816.092 5.266 5.266 0 0 0-2.725 4.622v8.54a10.147 10.147 0 0 1-1.933-5.98zm30.875 7.406v-2.003l10.827-1.452-4.54 4.814zm22.99-19.982a5.327 5.327 0 0 0-5.094-.445c-10.001 4.375-15.948 8.634-18.234 10.434a3.616 3.616 0 0 0-1.326-1.515c2.64-7.424 7.568-10.844 7.643-10.896a.861.861 0 0 0 .235-1.187.845.845 0 0 0-1.179-.238c-.227.153-5.473 3.753-8.31 11.774a3.582 3.582 0 0 0-.598 0c-2.837-8.021-8.083-11.621-8.31-11.774a.845.845 0 0 0-1.177.237.862.862 0 0 0 .233 1.188c.05.034 4.996 3.453 7.643 10.896a3.62 3.62 0 0 0-1.326 1.515c-2.286-1.8-8.233-6.059-18.234-10.434a5.327 5.327 0 0 0-5.093.445 5.437 5.437 0 0 0-2.437 4.547v8.03c0 3.594 1.59 6.952 4.362 9.211a11.64 11.64 0 0 0 6.53 2.605l-2.375 1.945a8.299 8.299 0 0 0-2.842 4.67 8.351 8.351 0 0 0 .68 5.435c1.386 2.793 4.17 4.543 7.266 4.566h.062c3.072 0 5.854-1.704 7.27-4.458l3.353-6.52a.86.86 0 0 0-.364-1.155.846.846 0 0 0-1.145.366l-3.352 6.52c-1.14 2.216-3.29 3.533-5.76 3.533h-.051c-2.492-.018-4.644-1.37-5.759-3.618a6.544 6.544 0 0 1 1.713-8.009l4.179-3.423c.147-.026.294-.054.44-.086l11.22-2.424v4.434a3.604 3.604 0 0 0 2.723 3.5v8.405c0 .473.38.857.85.857s.85-.384.85-.857v-8.404a3.599 3.599 0 0 0 2.502-2.25l4.695 9.131c1.416 2.754 4.197 4.458 7.27 4.458h.061c3.097-.023 5.881-1.773 7.266-4.566a8.351 8.351 0 0 0 .68-5.435 8.3 8.3 0 0 0-2.84-4.67l-2.375-1.946a11.642 11.642 0 0 0 6.53-2.604 11.832 11.832 0 0 0 4.361-9.212v-8.029a5.436 5.436 0 0 0-2.437-4.547z"/></g><g><path d="M200.384 139.495c0 1.042-.847 1.89-1.889 1.89a1.891 1.891 0 0 1-1.89-1.89c0-1.042.848-1.89 1.89-1.89 1.042 0 1.89.848 1.89 1.89zM195 139.5c0 1.93 1.57 3.5 3.5 3.5s3.5-1.57 3.5-3.5-1.57-3.5-3.5-3.5-3.5 1.57-3.5 3.5z"/></g></g><g transform="rotate(6 98 110)"><g><path d="M83.384 124.495c0 1.042-.847 1.89-1.889 1.89a1.891 1.891 0 0 1-1.89-1.89c0-1.042.848-1.89 1.89-1.89 1.042 0 1.89.848 1.89 1.89zM78 124.5c0 1.93 1.57 3.5 3.5 3.5s3.5-1.57 3.5-3.5-1.57-3.5-3.5-3.5-3.5 1.57-3.5 3.5z"/></g><g><path d="M124.3 103.567c0 2.184-.686 4.265-1.932 5.98v-8.54c0-1.93-1.044-3.7-2.725-4.623a5.18 5.18 0 0 0-4.816-.091c-6.092 3.06-10.062 5.837-11.887 7.22a.862.862 0 0 0-.169 1.2.845.845 0 0 0 1.19.17c1.778-1.348 5.653-4.058 11.624-7.057a3.491 3.491 0 0 1 3.246.064c.36.197.676.453.94.75l-6.504 6.9-12.693 1.701v-4.334c1.345-1.118 7.46-5.928 18.572-10.788a3.598 3.598 0 0 1 3.485.305 3.724 3.724 0 0 1 1.67 3.114v8.03zm-12.152 9.908l-3.338-.722 11.779-12.493c.052.243.08.493.08.747v10.357l-.099.083a9.941 9.941 0 0 1-8.422 2.028zm5.977 13.193c-1.115 2.247-3.267 3.6-5.759 3.618-2.488.02-4.664-1.302-5.81-3.533l-5.982-11.633v-2.394l11.218 2.424c.147.032.294.06.442.086l4.178 3.423a6.544 6.544 0 0 1 1.713 8.009zm-21.13-7.617c-1.03 0-1.87-.848-1.87-1.89v-14.652c0-1.043.84-1.89 1.87-1.89 1.03 0 1.87.847 1.87 1.89v14.652c0 1.042-.84 1.89-1.87 1.89zm-9.857-6.719l-4.54-4.814 10.828 1.452v2.003zm-5.286 1.143a9.941 9.941 0 0 1-8.422-2.028l-.099-.083v-10.357c0-.254.028-.504.08-.747l11.78 12.493zm-12.153-9.908v-8.029c0-1.258.625-2.422 1.67-3.114a3.598 3.598 0 0 1 3.485-.305c11.112 4.86 17.227 9.67 18.572 10.788v4.334l-12.693-1.702-6.504-6.898c.264-.298.58-.554.94-.751a3.491 3.491 0 0 1 3.246-.063c5.97 2.998 9.846 5.708 11.624 7.056a.845.845 0 0 0 1.19-.17.862.862 0 0 0-.169-1.2c-1.825-1.383-5.795-4.16-11.887-7.22a5.179 5.179 0 0 0-4.816.092 5.266 5.266 0 0 0-2.725 4.622v8.54a10.147 10.147 0 0 1-1.933-5.98zm30.875 7.406v-2.003l10.827-1.452-4.54 4.814zm22.99-19.982a5.327 5.327 0 0 0-5.094-.445c-10.001 4.375-15.948 8.634-18.234 10.434a3.616 3.616 0 0 0-1.326-1.515c2.64-7.424 7.568-10.844 7.643-10.896a.861.861 0 0 0 .235-1.187.845.845 0 0 0-1.179-.238c-.227.153-5.473 3.753-8.31 11.774a3.582 3.582 0 0 0-.598 0c-2.837-8.021-8.083-11.621-8.31-11.774a.845.845 0 0 0-1.177.237.862.862 0 0 0 .233 1.188c.05.034 4.996 3.453 7.643 10.896a3.62 3.62 0 0 0-1.326 1.515c-2.286-1.8-8.233-6.059-18.234-10.434a5.327 5.327 0 0 0-5.093.445A5.437 5.437 0 0 0 68 95.538v8.03c0 3.594 1.59 6.952 4.362 9.211a11.64 11.64 0 0 0 6.53 2.605l-2.375 1.945a8.299 8.299 0 0 0-2.842 4.67 8.351 8.351 0 0 0 .68 5.435c1.386 2.793 4.17 4.543 7.267 4.566h.061c3.072 0 5.854-1.704 7.27-4.458l3.353-6.52a.86.86 0 0 0-.364-1.155.846.846 0 0 0-1.145.366l-3.352 6.52c-1.14 2.216-3.29 3.533-5.76 3.533h-.051c-2.492-.018-4.644-1.37-5.759-3.618a6.544 6.544 0 0 1 1.713-8.009l4.179-3.423c.147-.026.294-.054.44-.086l11.22-2.424v4.434a3.604 3.604 0 0 0 2.723 3.5v8.405c0 .473.38.857.85.857s.85-.384.85-.857v-8.404a3.599 3.599 0 0 0 2.502-2.25l4.695 9.131c1.416 2.754 4.197 4.458 7.27 4.458h.062c3.096-.023 5.88-1.773 7.265-4.566a8.351 8.351 0 0 0 .681-5.435 8.3 8.3 0 0 0-2.842-4.67l-2.374-1.946a11.642 11.642 0 0 0 6.53-2.604 11.832 11.832 0 0 0 4.361-9.212v-8.029a5.436 5.436 0 0 0-2.437-4.547z"/></g><g><path d="M114.384 124.495c0 1.042-.847 1.89-1.889 1.89a1.891 1.891 0 0 1-1.89-1.89c0-1.042.848-1.89 1.89-1.89 1.042 0 1.89.848 1.89 1.89zM109 124.5c0 1.93 1.57 3.5 3.5 3.5s3.5-1.57 3.5-3.5-1.57-3.5-3.5-3.5-3.5 1.57-3.5 3.5z"/></g></g><g transform="rotate(6 40 163)"><g><path d="M25.384 177.495c0 1.042-.847 1.89-1.889 1.89a1.891 1.891 0 0 1-1.89-1.89c0-1.042.848-1.89 1.89-1.89 1.042 0 1.89.848 1.89 1.89zM20 177.5c0 1.93 1.57 3.5 3.5 3.5s3.5-1.57 3.5-3.5-1.57-3.5-3.5-3.5-3.5 1.57-3.5 3.5z"/></g><g><path d="M66.3 156.567c0 2.184-.686 4.265-1.932 5.98v-8.54c0-1.93-1.044-3.7-2.725-4.623a5.18 5.18 0 0 0-4.816-.091c-6.092 3.06-10.062 5.837-11.887 7.22a.862.862 0 0 0-.169 1.2.845.845 0 0 0 1.19.17c1.778-1.348 5.653-4.058 11.624-7.057a3.491 3.491 0 0 1 3.246.064c.36.197.676.453.94.75l-6.504 6.9-12.693 1.701v-4.334c1.345-1.118 7.46-5.928 18.572-10.789a3.598 3.598 0 0 1 3.485.306 3.724 3.724 0 0 1 1.67 3.114v8.03zm-12.152 9.908l-3.338-.722 11.779-12.493c.052.243.08.493.08.747v10.357l-.099.083a9.941 9.941 0 0 1-8.422 2.028zm5.977 13.193c-1.115 2.247-3.267 3.6-5.759 3.618-2.488.02-4.664-1.302-5.81-3.533l-5.982-11.633v-2.394l11.218 2.424c.147.032.294.06.442.086l4.178 3.423a6.544 6.544 0 0 1 1.713 8.009zm-21.13-7.617c-1.03 0-1.87-.848-1.87-1.89v-14.652c0-1.043.84-1.89 1.87-1.89 1.03 0 1.87.847 1.87 1.89v14.651c0 1.043-.84 1.891-1.87 1.891zm-9.857-6.719l-4.54-4.814 10.828 1.452v2.003zm-5.286 1.143a9.941 9.941 0 0 1-8.422-2.028l-.099-.083v-10.357c0-.254.028-.504.08-.747l11.78 12.493zm-12.153-9.908v-8.029c0-1.258.625-2.422 1.67-3.114a3.598 3.598 0 0 1 3.485-.305c11.112 4.86 17.227 9.67 18.572 10.788v4.334l-12.693-1.702-6.504-6.898c.264-.298.58-.554.94-.751a3.491 3.491 0 0 1 3.246-.063c5.97 2.998 9.846 5.708 11.624 7.056a.845.845 0 0 0 1.19-.17.862.862 0 0 0-.169-1.2c-1.825-1.383-5.795-4.16-11.887-7.22a5.179 5.179 0 0 0-4.816.092 5.266 5.266 0 0 0-2.725 4.622v8.54a10.147 10.147 0 0 1-1.933-5.98zm30.875 7.406v-2.003l10.827-1.452-4.54 4.814zm22.99-19.982a5.327 5.327 0 0 0-5.094-.445c-10.001 4.375-15.948 8.634-18.234 10.434a3.616 3.616 0 0 0-1.326-1.515c2.64-7.424 7.568-10.844 7.643-10.896a.861.861 0 0 0 .235-1.187.845.845 0 0 0-1.179-.238c-.227.153-5.473 3.753-8.31 11.774a3.582 3.582 0 0 0-.598 0c-2.837-8.021-8.083-11.621-8.31-11.774a.845.845 0 0 0-1.177.237.862.862 0 0 0 .233 1.188c.05.034 4.996 3.453 7.643 10.896a3.62 3.62 0 0 0-1.326 1.515c-2.286-1.8-8.233-6.059-18.234-10.434a5.327 5.327 0 0 0-5.093.445A5.437 5.437 0 0 0 10 148.538v8.03c0 3.594 1.59 6.952 4.362 9.211a11.64 11.64 0 0 0 6.53 2.605l-2.375 1.945a8.299 8.299 0 0 0-2.842 4.67 8.351 8.351 0 0 0 .68 5.435c1.386 2.793 4.17 4.543 7.267 4.566h.061c3.072 0 5.854-1.704 7.27-4.458l3.353-6.52a.86.86 0 0 0-.364-1.155.846.846 0 0 0-1.145.366l-3.352 6.52c-1.14 2.216-3.29 3.533-5.76 3.533h-.051c-2.492-.018-4.644-1.37-5.759-3.618a6.544 6.544 0 0 1 1.713-8.009l4.179-3.423c.147-.026.294-.054.44-.086l11.22-2.424v4.435a3.604 3.604 0 0 0 2.723 3.5v8.404c0 .473.38.857.85.857s.85-.384.85-.857v-8.404a3.599 3.599 0 0 0 2.502-2.25l4.695 9.131c1.416 2.754 4.197 4.458 7.27 4.458h.062c3.096-.023 5.88-1.773 7.265-4.566a8.351 8.351 0 0 0 .681-5.435 8.3 8.3 0 0 0-2.842-4.67l-2.374-1.946a11.642 11.642 0 0 0 6.53-2.604A11.832 11.832 0 0 0 68 156.567v-8.029a5.436 5.436 0 0 0-2.437-4.547z"/></g><g><path d="M56.384 177.495c0 1.042-.847 1.89-1.889 1.89a1.891 1.891 0 0 1-1.89-1.89c0-1.042.848-1.89 1.89-1.89 1.042 0 1.89.848 1.89 1.89zM51 177.5c0 1.93 1.57 3.5 3.5 3.5s3.5-1.57 3.5-3.5-1.57-3.5-3.5-3.5-3.5 1.57-3.5 3.5z"/></g></g><g transform="rotate(6 161 66)"><g><path d="M146.384 80.495c0 1.042-.847 1.89-1.889 1.89a1.891 1.891 0 0 1-1.89-1.89c0-1.042.848-1.89 1.89-1.89 1.042 0 1.89.848 1.89 1.89zM141 80.5c0 1.93 1.57 3.5 3.5 3.5s3.5-1.57 3.5-3.5-1.57-3.5-3.5-3.5-3.5 1.57-3.5 3.5z"/></g><g><path d="M187.3 59.567c0 2.184-.686 4.265-1.932 5.98v-8.54c0-1.93-1.044-3.7-2.725-4.623a5.18 5.18 0 0 0-4.816-.091c-6.092 3.06-10.062 5.837-11.887 7.22a.862.862 0 0 0-.169 1.2.845.845 0 0 0 1.19.17c1.778-1.348 5.653-4.058 11.624-7.057a3.491 3.491 0 0 1 3.246.064c.36.197.676.453.94.75l-6.504 6.9-12.693 1.701v-4.334c1.345-1.118 7.46-5.928 18.572-10.788a3.598 3.598 0 0 1 3.485.305 3.724 3.724 0 0 1 1.67 3.114v8.03zm-12.152 9.908l-3.338-.722 11.779-12.493c.052.243.08.493.08.747v10.357l-.099.083a9.941 9.941 0 0 1-8.422 2.028zm5.977 13.193c-1.115 2.247-3.267 3.6-5.759 3.618-2.488.02-4.664-1.302-5.81-3.533l-5.982-11.633v-2.394l11.218 2.424c.147.032.294.06.441.086l4.179 3.423a6.544 6.544 0 0 1 1.713 8.009zm-21.13-7.617c-1.03 0-1.87-.848-1.87-1.89V58.508c0-1.043.84-1.89 1.87-1.89 1.03 0 1.87.847 1.87 1.89V73.16c0 1.042-.84 1.89-1.87 1.89zm-9.857-6.719l-4.54-4.814 10.828 1.452v2.003zm-5.286 1.143a9.941 9.941 0 0 1-8.422-2.028l-.099-.083V57.007c0-.254.028-.504.08-.747l11.78 12.493zm-12.153-9.908v-8.029c0-1.258.625-2.422 1.67-3.114a3.598 3.598 0 0 1 3.485-.305c11.112 4.86 17.227 9.67 18.572 10.788v4.334l-12.693-1.702-6.504-6.898c.264-.298.58-.554.94-.751a3.491 3.491 0 0 1 3.246-.063c5.97 2.998 9.846 5.708 11.624 7.056a.845.845 0 0 0 1.19-.17.862.862 0 0 0-.169-1.2c-1.825-1.383-5.795-4.16-11.887-7.22a5.179 5.179 0 0 0-4.816.092 5.266 5.266 0 0 0-2.725 4.622v8.54a10.147 10.147 0 0 1-1.933-5.98zm30.875 7.406V64.97l10.827-1.452-4.54 4.814zm22.99-19.982a5.327 5.327 0 0 0-5.094-.445c-10.001 4.375-15.948 8.634-18.234 10.434a3.616 3.616 0 0 0-1.326-1.515c2.64-7.424 7.568-10.844 7.643-10.896a.861.861 0 0 0 .235-1.187.845.845 0 0 0-1.179-.238c-.227.153-5.473 3.753-8.31 11.774a3.582 3.582 0 0 0-.598 0c-2.837-8.021-8.083-11.621-8.31-11.774a.845.845 0 0 0-1.177.237.862.862 0 0 0 .233 1.188c.05.034 4.996 3.453 7.643 10.896a3.62 3.62 0 0 0-1.326 1.515c-2.286-1.8-8.233-6.059-18.234-10.434a5.327 5.327 0 0 0-5.093.445A5.437 5.437 0 0 0 131 51.538v8.03c0 3.594 1.59 6.952 4.362 9.211a11.64 11.64 0 0 0 6.53 2.605l-2.375 1.945a8.299 8.299 0 0 0-2.842 4.67 8.351 8.351 0 0 0 .68 5.435c1.386 2.793 4.17 4.543 7.266 4.566h.062c3.072 0 5.854-1.704 7.27-4.458l3.353-6.52a.86.86 0 0 0-.364-1.155.846.846 0 0 0-1.145.366l-3.352 6.52c-1.14 2.216-3.29 3.533-5.76 3.533h-.051c-2.492-.018-4.644-1.37-5.759-3.618a6.544 6.544 0 0 1 1.713-8.009l4.179-3.423c.147-.026.294-.054.44-.086l11.22-2.424v4.435a3.604 3.604 0 0 0 2.723 3.5v8.404c0 .473.38.857.85.857s.85-.384.85-.857v-8.404a3.599 3.599 0 0 0 2.502-2.25l4.695 9.131c1.416 2.754 4.197 4.458 7.27 4.458h.061c3.097-.023 5.881-1.773 7.266-4.566a8.351 8.351 0 0 0 .68-5.435 8.3 8.3 0 0 0-2.84-4.67l-2.375-1.946a11.642 11.642 0 0 0 6.53-2.604A11.832 11.832 0 0 0 189 59.567v-8.029a5.436 5.436 0 0 0-2.437-4.547z"/></g><g><path d="M177.384 80.495c0 1.042-.847 1.89-1.889 1.89a1.891 1.891 0 0 1-1.89-1.89c0-1.042.848-1.89 1.89-1.89 1.042 0 1.89.848 1.89 1.89zM172 80.5c0 1.93 1.57 3.5 3.5 3.5s3.5-1.57 3.5-3.5-1.57-3.5-3.5-3.5-3.5 1.57-3.5 3.5z"/></g></g></g></g></svg>