<svg xmlns="http://www.w3.org/2000/svg" width="252" height="189" viewBox="0 0 252 189"><g><g><g><g transform="rotate(-15 95 47)"><g><path d="M103.86 58.409H89.14l-1.882-20.725h18.49zM93.385 34.577c0-.572.465-1.036 1.04-1.036h4.16c.575 0 1.04.464 1.04 1.036v1.036h-6.24v-1.036zm15.576 1.036h-7.269v-1.036a3.111 3.111 0 0 0-3.115-3.107h-4.154a3.111 3.111 0 0 0-3.115 3.107v1.036h-7.27a1.037 1.037 0 0 0 0 2.071h1.13l1.986 21.844c.049.535.5.944 1.038.942h16.616c.538.002.99-.407 1.038-.942l1.987-21.844h1.129c.573 0 1.038-.463 1.038-1.035 0-.572-.465-1.036-1.039-1.036z"/></g><g><path d="M92.998 55.337v-.005l-.999-14.872c-.04-.587-.518-1.029-1.07-.987-.55.041-.966.55-.926 1.137L91 55.483c.037.557.473.988.998.987h.072c.55-.04.965-.548.927-1.133z"/></g><g><path d="M97 39.47c-.552 0-1 .476-1 1.063v14.874c0 .587.448 1.063 1 1.063s1-.476 1-1.063V40.533c0-.587-.448-1.063-1-1.063z"/></g><g><path d="M102.07 39.473c-.551-.042-1.03.4-1.069.987l-.998 14.872c-.04.585.372 1.095.922 1.138h.076c.525.001.961-.43.998-.987l.998-14.873c.04-.586-.376-1.096-.927-1.137z"/></g></g><g transform="rotate(22 133.5 34)"><g><path d="M139.38 44.939h-14.72l-1.882-20.725h18.49zm-10.475-23.832c0-.572.465-1.036 1.04-1.036h4.16c.575 0 1.04.464 1.04 1.036v1.036h-6.24v-1.036zm15.576 1.036h-7.269v-1.036A3.111 3.111 0 0 0 134.097 18h-4.154a3.111 3.111 0 0 0-3.115 3.107v1.036h-7.27a1.037 1.037 0 0 0 0 2.071h1.13l1.986 21.844c.049.535.5.944 1.038.942h16.616c.538.002.99-.407 1.038-.942l1.987-21.844h1.129c.573 0 1.038-.463 1.038-1.035 0-.572-.465-1.036-1.039-1.036z"/></g><g><path d="M128.518 41.867v-.005l-.999-14.872c-.04-.587-.518-1.029-1.07-.987-.55.041-.966.55-.926 1.137l.998 14.873c.037.557.473.988.998.987h.072c.55-.04.965-.548.927-1.133z"/></g><g><path d="M132.52 26c-.552 0-1 .476-1 1.063v14.874c0 .587.448 1.063 1 1.063s1-.476 1-1.063V27.063c0-.587-.448-1.063-1-1.063z"/></g><g><path d="M137.59 26.003c-.551-.042-1.03.4-1.069.987l-.998 14.872c-.04.585.372 1.095.922 1.138h.076c.525.001.96-.43.998-.987l.998-14.873c.04-.586-.376-1.096-.927-1.137z"/></g></g><g transform="rotate(2 128 73)"><g><path d="M135.32 85.339H120.6l-1.882-20.725h18.49zm-10.475-23.832c0-.572.465-1.036 1.04-1.036h4.16c.575 0 1.04.464 1.04 1.036v1.036h-6.24v-1.036zm15.576 1.036h-7.269v-1.036a3.111 3.111 0 0 0-3.115-3.107h-4.154a3.111 3.111 0 0 0-3.115 3.107v1.036h-7.27a1.037 1.037 0 0 0 0 2.071h1.13l1.986 21.844c.049.535.5.944 1.038.942h16.616c.538.002.99-.407 1.038-.942l1.987-21.844h1.129c.573 0 1.038-.463 1.038-1.035 0-.572-.465-1.036-1.039-1.036z"/></g><g><path d="M124.458 82.267v-.005l-.999-14.872c-.04-.587-.518-1.029-1.07-.987-.55.041-.966.55-.926 1.137l.998 14.873c.037.557.473.988.998.987h.072c.55-.04.965-.548.927-1.133z"/></g><g><path d="M128.46 66.4c-.552 0-1 .476-1 1.063v14.874c0 .587.448 1.063 1 1.063s1-.476 1-1.063V67.463c0-.587-.448-1.063-1-1.063z"/></g><g><path d="M133.53 66.403c-.551-.042-1.03.4-1.069.987l-.998 14.872c-.04.585.372 1.095.922 1.138h.076c.525.001.96-.43.998-.987l.998-14.873c.04-.586-.376-1.096-.927-1.137z"/></g></g></g><g><g transform="rotate(-15 47 112)"><g><path d="M55.86 123.409H41.14l-1.882-20.725h18.49zM45.385 99.577c0-.572.465-1.036 1.04-1.036h4.16c.575 0 1.04.464 1.04 1.036v1.036h-6.24v-1.036zm15.576 1.036h-7.269v-1.036a3.111 3.111 0 0 0-3.115-3.107h-4.154a3.111 3.111 0 0 0-3.115 3.107v1.036h-7.27a1.037 1.037 0 0 0 0 2.071h1.13l1.986 21.844c.049.535.5.944 1.038.942h16.616c.538.002.99-.407 1.038-.942l1.987-21.844h1.129c.573 0 1.038-.463 1.038-1.035 0-.572-.465-1.036-1.039-1.036z"/></g><g><path d="M44.998 120.337v-.005l-.999-14.872c-.04-.587-.518-1.029-1.07-.987-.55.041-.966.55-.926 1.137L43 120.483c.037.557.473.988.998.987h.072c.55-.04.965-.548.927-1.133z"/></g><g><path d="M49 104.47c-.552 0-1 .476-1 1.063v14.874c0 .587.448 1.063 1 1.063s1-.476 1-1.063v-14.874c0-.587-.448-1.063-1-1.063z"/></g><g><path d="M54.07 104.473c-.551-.042-1.03.4-1.069.987l-.998 14.872c-.04.585.372 1.095.922 1.138h.076c.525.001.96-.43.998-.987l.998-14.873c.04-.586-.376-1.096-.927-1.137z"/></g></g><g transform="rotate(22 85.5 99)"><g><path d="M91.38 109.939H76.66l-1.882-20.725h18.49zM80.905 86.107c0-.572.465-1.036 1.04-1.036h4.16c.575 0 1.04.464 1.04 1.036v1.036h-6.24v-1.036zm15.576 1.036h-7.269v-1.036A3.111 3.111 0 0 0 86.097 83h-4.154a3.111 3.111 0 0 0-3.115 3.107v1.036h-7.27a1.037 1.037 0 0 0 0 2.071h1.13l1.986 21.844c.049.535.5.944 1.038.942h16.616c.538.002.99-.407 1.038-.942l1.987-21.844h1.129c.573 0 1.038-.463 1.038-1.035 0-.572-.465-1.036-1.039-1.036z"/></g><g><path d="M80.518 106.867v-.005l-.999-14.872c-.04-.587-.518-1.029-1.07-.987-.55.041-.966.55-.926 1.137l.998 14.873c.037.557.473.988.998.987h.072c.55-.04.965-.548.927-1.133z"/></g><g><path d="M84.52 91c-.552 0-1 .476-1 1.063v14.874c0 .587.448 1.063 1 1.063s1-.476 1-1.063V92.063c0-.587-.448-1.063-1-1.063z"/></g><g><path d="M89.59 91.003c-.551-.042-1.03.4-1.069.987l-.998 14.872c-.04.585.372 1.095.922 1.138h.076c.525.001.961-.43.998-.987l.998-14.873c.04-.586-.376-1.096-.927-1.137z"/></g></g><g transform="rotate(2 80 138)"><g><path d="M87.32 150.339H72.6l-1.882-20.725h18.49zm-10.475-23.832c0-.572.465-1.036 1.04-1.036h4.16c.575 0 1.04.464 1.04 1.036v1.036h-6.24v-1.036zm15.576 1.036h-7.269v-1.036a3.111 3.111 0 0 0-3.115-3.107h-4.154a3.111 3.111 0 0 0-3.115 3.107v1.036h-7.27a1.037 1.037 0 0 0 0 2.071h1.13l1.986 21.844c.049.535.5.944 1.038.942h16.616c.538.002.99-.407 1.038-.942l1.987-21.844h1.129c.573 0 1.038-.463 1.038-1.035 0-.572-.465-1.036-1.039-1.036z"/></g><g><path d="M76.458 147.267v-.005l-.999-14.872c-.04-.587-.518-1.029-1.07-.987-.55.041-.966.55-.926 1.137l.998 14.873c.037.557.473.988.998.987h.072c.55-.04.965-.548.927-1.133z"/></g><g><path d="M80.46 131.4c-.552 0-1 .476-1 1.063v14.874c0 .587.448 1.063 1 1.063s1-.476 1-1.063v-14.874c0-.587-.448-1.063-1-1.063z"/></g><g><path d="M85.53 131.403c-.551-.042-1.03.4-1.069.987l-.998 14.872c-.04.585.372 1.095.922 1.138h.076c.525.001.961-.43.998-.987l.998-14.873c.04-.586-.376-1.096-.927-1.137z"/></g></g></g><g><g transform="rotate(-15 14 29)"><g><path d="M22.86 40.409H8.14L6.258 19.684h18.49zM12.385 16.577c0-.572.465-1.036 1.04-1.036h4.16c.575 0 1.04.464 1.04 1.036v1.036h-6.24v-1.036zm15.576 1.036h-7.269v-1.036a3.111 3.111 0 0 0-3.115-3.107h-4.154a3.111 3.111 0 0 0-3.115 3.107v1.036h-7.27a1.037 1.037 0 0 0 0 2.071h1.13l1.986 21.844c.049.535.5.944 1.038.942h16.616c.538.002.99-.407 1.038-.942l1.987-21.844h1.129c.573 0 1.038-.463 1.038-1.035 0-.572-.465-1.036-1.039-1.036z"/></g><g><path d="M11.998 37.337v-.005l-.999-14.872c-.04-.587-.518-1.029-1.07-.987-.55.041-.966.55-.926 1.137L10 37.483c.037.557.473.988.998.987h.072c.55-.04.965-.548.927-1.133z"/></g><g><path d="M16 21.47c-.552 0-1 .476-1 1.063v14.874c0 .587.448 1.063 1 1.063s1-.476 1-1.063V22.533c0-.587-.448-1.063-1-1.063z"/></g><g><path d="M21.07 21.473c-.551-.042-1.03.4-1.069.987l-.998 14.872c-.04.585.372 1.095.922 1.138h.076c.525.001.96-.43.998-.987l.998-14.873c.04-.586-.376-1.096-.927-1.137z"/></g></g><g transform="rotate(22 52.5 16)"><g><path d="M58.38 26.939H43.66L41.778 6.214h18.49zM47.905 3.107c0-.572.465-1.036 1.04-1.036h4.16c.575 0 1.04.464 1.04 1.036v1.036h-6.24V3.107zM63.48 4.143h-7.269V3.107A3.111 3.111 0 0 0 53.097 0h-4.154a3.111 3.111 0 0 0-3.115 3.107v1.036h-7.27a1.037 1.037 0 0 0 0 2.071h1.13l1.986 21.844c.049.535.5.944 1.038.942h16.616c.538.002.99-.407 1.038-.942l1.987-21.844h1.129c.573 0 1.038-.463 1.038-1.035 0-.572-.465-1.036-1.039-1.036z"/></g><g><path d="M47.518 23.867v-.005L46.518 8.99c-.04-.587-.518-1.029-1.07-.987-.55.041-.966.55-.926 1.137l.998 14.873c.037.557.473.988.998.987h.072c.55-.04.965-.548.927-1.133z"/></g><g><path d="M51.52 8c-.552 0-1 .476-1 1.063v14.874c0 .587.448 1.063 1 1.063s1-.476 1-1.063V9.063c0-.587-.448-1.063-1-1.063z"/></g><g><path d="M56.59 8.003c-.551-.042-1.03.4-1.069.987l-.998 14.872c-.04.585.372 1.095.922 1.138h.076c.525.001.96-.43.998-.987l.998-14.873c.04-.586-.376-1.096-.927-1.137z"/></g></g><g transform="rotate(2 47 55)"><g><path d="M54.32 67.339H39.6l-1.882-20.725h18.49zM43.845 43.507c0-.572.465-1.036 1.04-1.036h4.16c.575 0 1.04.464 1.04 1.036v1.036h-6.24v-1.036zm15.576 1.036h-7.269v-1.036a3.111 3.111 0 0 0-3.115-3.107h-4.154a3.111 3.111 0 0 0-3.115 3.107v1.036h-7.27a1.037 1.037 0 0 0 0 2.071h1.13l1.986 21.844c.049.535.5.944 1.038.942h16.616c.538.002.99-.407 1.038-.942l1.987-21.844h1.129c.573 0 1.038-.463 1.038-1.035 0-.572-.465-1.036-1.039-1.036z"/></g><g><path d="M43.458 64.267v-.005l-.999-14.872c-.04-.587-.518-1.029-1.07-.987-.55.041-.966.55-.926 1.137l.998 14.873c.037.557.473.988.998.987h.072c.55-.04.965-.548.927-1.133z"/></g><g><path d="M47.46 48.4c-.552 0-1 .476-1 1.063v14.874c0 .587.448 1.063 1 1.063s1-.476 1-1.063V49.463c0-.587-.448-1.063-1-1.063z"/></g><g><path d="M52.53 48.403c-.551-.042-1.03.4-1.069.987l-.998 14.872c-.04.585.372 1.095.922 1.138h.076c.525.001.96-.43.998-.987l.998-14.873c.04-.586-.376-1.096-.927-1.137z"/></g></g></g><g><g transform="rotate(-15 128 121)"><g><path d="M136.86 132.409h-14.72l-1.882-20.725h18.49zm-10.475-23.832c0-.572.465-1.036 1.04-1.036h4.16c.575 0 1.04.464 1.04 1.036v1.036h-6.24v-1.036zm15.576 1.036h-7.269v-1.036a3.111 3.111 0 0 0-3.115-3.107h-4.154a3.111 3.111 0 0 0-3.115 3.107v1.036h-7.27a1.037 1.037 0 0 0 0 2.071h1.13l1.986 21.844c.049.535.5.944 1.038.942h16.616c.538.002.99-.407 1.038-.942l1.987-21.844h1.129c.573 0 1.038-.463 1.038-1.035 0-.572-.465-1.036-1.039-1.036z"/></g><g><path d="M125.998 129.337v-.005l-.999-14.872c-.04-.587-.518-1.029-1.07-.987-.55.041-.966.55-.926 1.137l.998 14.873c.037.557.473.988.998.987h.072c.55-.04.965-.548.927-1.133z"/></g><g><path d="M130 113.47c-.552 0-1 .476-1 1.063v14.874c0 .587.448 1.063 1 1.063s1-.476 1-1.063v-14.874c0-.587-.448-1.063-1-1.063z"/></g><g><path d="M135.07 113.473c-.551-.042-1.03.4-1.069.987l-.998 14.872c-.04.585.372 1.095.922 1.138h.076c.525.001.96-.43.998-.987l.998-14.873c.04-.586-.376-1.096-.927-1.137z"/></g></g><g transform="rotate(22 166.5 108)"><g><path d="M172.38 118.939h-14.72l-1.882-20.725h18.49zm-10.475-23.832c0-.572.465-1.036 1.04-1.036h4.16c.575 0 1.04.464 1.04 1.036v1.036h-6.24v-1.036zm15.576 1.036h-7.269v-1.036A3.111 3.111 0 0 0 167.097 92h-4.154a3.111 3.111 0 0 0-3.115 3.107v1.036h-7.27a1.037 1.037 0 0 0 0 2.071h1.13l1.986 21.844c.049.535.5.944 1.038.942h16.616c.538.002.99-.407 1.038-.942l1.987-21.844h1.129c.573 0 1.038-.463 1.038-1.035 0-.572-.465-1.036-1.039-1.036z"/></g><g><path d="M161.518 115.867v-.005l-.999-14.872c-.04-.587-.518-1.029-1.07-.987-.55.041-.966.55-.926 1.137l.998 14.873c.037.557.473.988.998.987h.072c.55-.04.965-.548.927-1.133z"/></g><g><path d="M165.52 100c-.552 0-1 .476-1 1.063v14.874c0 .587.448 1.063 1 1.063s1-.476 1-1.063v-14.874c0-.587-.448-1.063-1-1.063z"/></g><g><path d="M170.59 100.003c-.551-.042-1.03.4-1.069.987l-.998 14.872c-.04.585.372 1.095.922 1.138h.076c.525.001.96-.43.998-.987l.998-14.873c.04-.586-.376-1.096-.927-1.137z"/></g></g><g transform="rotate(2 161 147)"><g><path d="M168.32 159.339H153.6l-1.882-20.725h18.49zm-10.475-23.832c0-.572.465-1.036 1.04-1.036h4.16c.575 0 1.04.464 1.04 1.036v1.036h-6.24v-1.036zm15.576 1.036h-7.269v-1.036a3.111 3.111 0 0 0-3.115-3.107h-4.154a3.111 3.111 0 0 0-3.115 3.107v1.036h-7.27a1.037 1.037 0 0 0 0 2.071h1.13l1.986 21.844c.049.535.5.944 1.038.942h16.616c.538.002.99-.407 1.038-.942l1.987-21.844h1.129c.573 0 1.038-.463 1.038-1.035 0-.572-.465-1.036-1.039-1.036z"/></g><g><path d="M157.458 156.267v-.005l-.999-14.872c-.04-.587-.518-1.029-1.07-.987-.55.041-.966.55-.926 1.137l.998 14.873c.037.557.473.988.998.987h.072c.55-.04.965-.548.927-1.133z"/></g><g><path d="M161.46 140.4c-.552 0-1 .476-1 1.063v14.874c0 .587.448 1.063 1 1.063s1-.476 1-1.063v-14.874c0-.587-.448-1.063-1-1.063z"/></g><g><path d="M166.53 140.403c-.551-.042-1.03.4-1.069.987l-.998 14.872c-.04.585.372 1.095.922 1.138h.076c.525.001.96-.43.998-.987l.998-14.873c.04-.586-.376-1.096-.927-1.137z"/></g></g></g><g><g transform="rotate(-15 176 66)"><g><path d="M184.86 77.409h-14.72l-1.882-20.725h18.49zm-10.475-23.832c0-.572.465-1.036 1.04-1.036h4.16c.575 0 1.04.464 1.04 1.036v1.036h-6.24v-1.036zm15.576 1.036h-7.269v-1.036a3.111 3.111 0 0 0-3.115-3.107h-4.154a3.111 3.111 0 0 0-3.115 3.107v1.036h-7.27a1.037 1.037 0 0 0 0 2.071h1.13l1.986 21.844c.049.535.5.944 1.038.942h16.616c.538.002.99-.407 1.038-.942l1.987-21.844h1.129c.573 0 1.038-.463 1.038-1.035 0-.572-.465-1.036-1.039-1.036z"/></g><g><path d="M173.998 74.337v-.005l-.999-14.872c-.04-.587-.518-1.029-1.07-.987-.55.041-.966.55-.926 1.137L172 74.483c.037.557.473.988.998.987h.072c.55-.04.965-.548.927-1.133z"/></g><g><path d="M178 58.47c-.552 0-1 .476-1 1.063v14.874c0 .587.448 1.063 1 1.063s1-.476 1-1.063V59.533c0-.587-.448-1.063-1-1.063z"/></g><g><path d="M183.07 58.473c-.551-.042-1.03.4-1.069.987l-.998 14.872c-.04.585.372 1.095.922 1.138h.076c.525.001.96-.43.998-.987l.998-14.873c.04-.586-.376-1.096-.927-1.137z"/></g></g><g transform="rotate(22 214.5 53)"><g><path d="M220.38 63.939h-14.72l-1.882-20.725h18.49zm-10.475-23.832c0-.572.465-1.036 1.04-1.036h4.16c.575 0 1.04.464 1.04 1.036v1.036h-6.24v-1.036zm15.576 1.036h-7.269v-1.036A3.111 3.111 0 0 0 215.097 37h-4.154a3.111 3.111 0 0 0-3.115 3.107v1.036h-7.27a1.037 1.037 0 0 0 0 2.071h1.13l1.986 21.844c.049.535.5.944 1.038.942h16.616c.538.002.99-.407 1.038-.942l1.987-21.844h1.129c.573 0 1.038-.463 1.038-1.035 0-.572-.465-1.036-1.039-1.036z"/></g><g><path d="M209.518 60.867v-.005l-.999-14.872c-.04-.587-.518-1.029-1.07-.987-.55.041-.966.55-.926 1.137l.998 14.873c.037.557.473.988.998.987h.072c.55-.04.965-.548.927-1.133z"/></g><g><path d="M213.52 45c-.552 0-1 .476-1 1.063v14.874c0 .587.448 1.063 1 1.063s1-.476 1-1.063V46.063c0-.587-.448-1.063-1-1.063z"/></g><g><path d="M218.59 45.003c-.551-.042-1.03.4-1.069.987l-.998 14.872c-.04.585.372 1.095.922 1.138h.076c.525.001.96-.43.998-.987l.998-14.873c.04-.586-.376-1.096-.927-1.137z"/></g></g><g transform="rotate(2 209 92)"><g><path d="M216.32 104.339H201.6l-1.882-20.725h18.49zm-10.475-23.832c0-.572.465-1.036 1.04-1.036h4.16c.575 0 1.04.464 1.04 1.036v1.036h-6.24v-1.036zm15.576 1.036h-7.269v-1.036a3.111 3.111 0 0 0-3.115-3.107h-4.154a3.111 3.111 0 0 0-3.115 3.107v1.036h-7.27a1.037 1.037 0 0 0 0 2.071h1.13l1.986 21.844c.049.535.5.944 1.038.942h16.616c.538.002.99-.407 1.038-.942l1.987-21.844h1.129c.573 0 1.038-.463 1.038-1.035 0-.572-.465-1.036-1.039-1.036z"/></g><g><path d="M205.458 101.267v-.005l-.999-14.872c-.04-.587-.518-1.029-1.07-.987-.55.041-.966.55-.926 1.137l.998 14.873c.037.557.473.988.998.987h.072c.55-.04.965-.548.927-1.133z"/></g><g><path d="M209.46 85.4c-.552 0-1 .476-1 1.063v14.874c0 .587.448 1.063 1 1.063s1-.476 1-1.063V86.463c0-.587-.448-1.063-1-1.063z"/></g><g><path d="M214.53 85.403c-.551-.042-1.03.4-1.069.987l-.998 14.872c-.04.585.372 1.095.922 1.138h.076c.525.001.96-.43.998-.987l.998-14.873c.04-.586-.376-1.096-.927-1.137z"/></g></g></g><g><g transform="rotate(22 131.5 173)"><g><path d="M137.38 183.939h-14.72l-1.882-20.725h18.49zm-10.475-23.832c0-.572.465-1.036 1.04-1.036h4.16c.575 0 1.04.464 1.04 1.036v1.036h-6.24v-1.036zm15.576 1.036h-7.269v-1.036a3.111 3.111 0 0 0-3.115-3.107h-4.154a3.111 3.111 0 0 0-3.115 3.107v1.036h-7.27a1.037 1.037 0 0 0 0 2.071h1.13l1.986 21.844c.049.535.5.944 1.038.942h16.616c.538.002.99-.407 1.038-.942l1.987-21.844h1.129c.573 0 1.038-.463 1.038-1.035 0-.572-.465-1.036-1.039-1.036z"/></g><g><path d="M126.518 180.867v-.005l-.999-14.872c-.04-.587-.518-1.029-1.07-.987-.55.041-.966.55-.926 1.137l.998 14.873c.037.557.473.988.998.987h.072c.55-.04.965-.548.927-1.133z"/></g><g><path d="M130.52 165c-.552 0-1 .476-1 1.063v14.874c0 .587.448 1.063 1 1.063s1-.476 1-1.063v-14.874c0-.587-.448-1.063-1-1.063z"/></g><g><path d="M135.59 165.003c-.551-.042-1.03.4-1.069.987l-.998 14.872c-.04.585.372 1.095.922 1.138h.076c.525.001.96-.43.998-.987l.998-14.873c.04-.586-.376-1.096-.927-1.137z"/></g></g></g><g><g transform="rotate(-15 199 140)"><g><path d="M207.86 151.409h-14.72l-1.882-20.725h18.49zm-10.475-23.832c0-.572.465-1.036 1.04-1.036h4.16c.575 0 1.04.464 1.04 1.036v1.036h-6.24v-1.036zm15.576 1.036h-7.269v-1.036a3.111 3.111 0 0 0-3.115-3.107h-4.154a3.111 3.111 0 0 0-3.115 3.107v1.036h-7.27a1.037 1.037 0 0 0 0 2.071h1.13l1.986 21.844c.049.535.5.944 1.038.942h16.616c.538.002.99-.407 1.038-.942l1.987-21.844h1.129c.573 0 1.038-.463 1.038-1.035 0-.572-.465-1.036-1.039-1.036z"/></g><g><path d="M196.998 148.337v-.005l-.999-14.872c-.04-.587-.518-1.029-1.07-.987-.55.041-.966.55-.926 1.137l.998 14.873c.037.557.473.988.998.987h.072c.55-.04.965-.548.927-1.133z"/></g><g><path d="M201 132.47c-.552 0-1 .476-1 1.063v14.874c0 .587.448 1.063 1 1.063s1-.476 1-1.063v-14.874c0-.587-.448-1.063-1-1.063z"/></g><g><path d="M206.07 132.473c-.551-.042-1.03.4-1.069.987l-.998 14.872c-.04.585.372 1.095.922 1.138h.076c.525.001.96-.43.998-.987l.998-14.873c.04-.586-.376-1.096-.927-1.137z"/></g></g><g transform="rotate(22 237.5 127)"><g><path d="M243.38 137.939h-14.72l-1.882-20.725h18.49zm-10.475-23.832c0-.572.465-1.036 1.04-1.036h4.16c.575 0 1.04.464 1.04 1.036v1.036h-6.24v-1.036zm15.576 1.036h-7.269v-1.036a3.111 3.111 0 0 0-3.115-3.107h-4.154a3.111 3.111 0 0 0-3.115 3.107v1.036h-7.27a1.037 1.037 0 0 0 0 2.071h1.13l1.986 21.844c.049.535.5.944 1.038.942h16.616c.538.002.99-.407 1.038-.942l1.987-21.844h1.129c.573 0 1.038-.463 1.038-1.035 0-.572-.465-1.036-1.039-1.036z"/></g><g><path d="M232.518 134.867v-.005l-.999-14.872c-.04-.587-.518-1.029-1.07-.987-.55.041-.966.55-.926 1.137l.998 14.873c.037.557.473.988.998.987h.072c.55-.04.965-.548.927-1.133z"/></g><g><path d="M236.52 119c-.552 0-1 .476-1 1.063v14.874c0 .587.448 1.063 1 1.063s1-.476 1-1.063v-14.874c0-.587-.448-1.063-1-1.063z"/></g><g><path d="M241.59 119.003c-.551-.042-1.03.4-1.069.987l-.998 14.872c-.04.585.372 1.095.922 1.138h.076c.525.001.96-.43.998-.987l.998-14.873c.04-.586-.376-1.096-.927-1.137z"/></g></g><g transform="rotate(2 232 166)"><g><path d="M239.32 178.339H224.6l-1.882-20.725h18.49zm-10.475-23.832c0-.572.465-1.036 1.04-1.036h4.16c.575 0 1.04.464 1.04 1.036v1.036h-6.24v-1.036zm15.576 1.036h-7.269v-1.036a3.111 3.111 0 0 0-3.115-3.107h-4.154a3.111 3.111 0 0 0-3.115 3.107v1.036h-7.27a1.037 1.037 0 0 0 0 2.071h1.13l1.986 21.844c.049.535.5.944 1.038.942h16.616c.538.002.99-.407 1.038-.942l1.987-21.844h1.129c.573 0 1.038-.463 1.038-1.035 0-.572-.465-1.036-1.039-1.036z"/></g><g><path d="M228.458 175.267v-.005l-.999-14.872c-.04-.587-.518-1.029-1.07-.987-.55.041-.966.55-.926 1.137l.998 14.873c.037.557.473.988.998.987h.072c.55-.04.965-.548.927-1.133z"/></g><g><path d="M232.46 159.4c-.552 0-1 .476-1 1.063v14.874c0 .587.448 1.063 1 1.063s1-.476 1-1.063v-14.874c0-.587-.448-1.063-1-1.063z"/></g><g><path d="M237.53 159.403c-.551-.042-1.03.4-1.069.987l-.998 14.872c-.04.585.372 1.095.922 1.138h.076c.525.001.96-.43.998-.987l.998-14.873c.04-.586-.376-1.096-.927-1.137z"/></g></g></g></g></g></svg>