<svg width="232" height="45" viewBox="0 0 232 45" fill="none" xmlns="http://www.w3.org/2000/svg">
<path fill-rule="evenodd" clip-rule="evenodd" d="M8.94 22.5004C8.97702 16.4976 11.3965 10.7552 15.6664 6.53591C19.9364 2.3166 25.7072 -0.0342069 31.71 0.000376234H44C46.9718 -0.0167447 49.9179 0.551659 52.6701 1.67313C55.4222 2.79461 57.9265 4.44719 60.04 6.53652C62.1535 8.62584 63.8347 11.111 64.9877 13.8501C66.1408 16.5892 66.743 19.5285 66.76 22.5004C66.723 28.5014 64.3049 34.2423 60.0371 38.4613C55.7693 42.6803 50.0011 45.0323 44 45.0004H31.71C28.7373 45.0188 25.7902 44.4514 23.0369 43.3305C20.2835 42.2096 17.7781 40.5573 15.6635 38.4678C13.549 36.3783 11.8669 33.8927 10.7132 31.153C9.55956 28.4132 8.95702 25.4731 8.94 22.5004ZM17.35 13.6504C17.3552 12.6186 17.5638 11.5981 17.9638 10.647C18.3638 9.69596 18.9473 8.83308 19.681 8.10772C20.4147 7.38236 21.2842 6.80875 22.2398 6.4197C23.1954 6.03065 24.2183 5.83379 25.25 5.84038H50.44C51.4722 5.83379 52.4956 6.03058 53.4517 6.41951C54.4079 6.80843 55.278 7.38189 56.0126 8.10711C56.7471 8.83234 57.3315 9.69515 57.7326 10.6463C58.1337 11.5974 58.3435 12.6182 58.35 13.6504V31.3504C58.3435 32.3826 58.1337 33.4034 57.7326 34.3545C57.3315 35.3056 56.7471 36.1684 56.0126 36.8936C55.278 37.6189 54.4079 38.1923 53.4517 38.5812C52.4956 38.9702 51.4722 39.167 50.44 39.1604H25.25C23.1671 39.171 21.1652 38.3545 19.6839 36.8901C18.2027 35.4257 17.3632 33.4332 17.35 31.3504V13.6504ZM52.59 15.8004C52.2981 14.8699 51.7169 14.0569 50.9309 13.4798C50.1449 12.9026 49.1952 12.5913 48.22 12.5913C47.2448 12.5913 46.2951 12.9026 45.5091 13.4798C44.7232 14.0569 44.1419 14.8699 43.85 15.8004C43.7862 15.963 43.7523 16.1357 43.75 16.3104C43.75 16.6605 43.8891 16.9962 44.1366 17.2438C44.3842 17.4913 44.7199 17.6304 45.07 17.6304C45.3635 17.6315 45.6487 17.5333 45.8793 17.3518C46.1099 17.1702 46.2723 16.9159 46.34 16.6304C46.4839 16.2509 46.7399 15.9242 47.0739 15.6937C47.4079 15.4631 47.8042 15.3397 48.21 15.3397C48.6158 15.3397 49.0121 15.4631 49.3461 15.6937C49.6801 15.9242 49.9361 16.2509 50.08 16.6304C50.117 16.8132 50.1923 16.986 50.301 17.1376C50.4097 17.2891 50.5493 17.4159 50.7105 17.5096C50.8718 17.6033 51.051 17.6618 51.2365 17.6812C51.422 17.7006 51.6095 17.6805 51.7866 17.6221C51.9638 17.5638 52.1265 17.4686 52.2642 17.3428C52.4019 17.217 52.5113 17.0634 52.5853 16.8922C52.6593 16.7211 52.6962 16.5361 52.6936 16.3497C52.691 16.1632 52.6488 15.9794 52.57 15.8104L52.59 15.8004ZM32.35 15.8004C32.0581 14.8699 31.4768 14.0569 30.6909 13.4798C29.9049 12.9026 28.9552 12.5913 27.98 12.5913C27.0048 12.5913 26.0551 12.9026 25.2691 13.4798C24.4832 14.0569 23.9019 14.8699 23.61 15.8004C23.5462 15.963 23.5123 16.1357 23.51 16.3104C23.513 16.6313 23.6328 16.9401 23.8469 17.1791C24.0611 17.4181 24.355 17.5708 24.6737 17.6088C24.9923 17.6468 25.3139 17.5674 25.5783 17.3855C25.8426 17.2036 26.0317 16.9316 26.11 16.6204C26.2539 16.2409 26.5099 15.9142 26.8439 15.6837C27.1779 15.4531 27.5742 15.3297 27.98 15.3297C28.3858 15.3297 28.7821 15.4531 29.1161 15.6837C29.4501 15.9142 29.7061 16.2409 29.85 16.6204C29.887 16.8032 29.9623 16.976 30.071 17.1276C30.1797 17.2791 30.3193 17.4059 30.4805 17.4996C30.6418 17.5934 30.821 17.6518 31.0065 17.6712C31.192 17.6906 31.3795 17.6705 31.5566 17.6121C31.7338 17.5538 31.8965 17.4586 32.0342 17.3328C32.1719 17.207 32.2813 17.0534 32.3553 16.8822C32.4293 16.7111 32.4662 16.5261 32.4636 16.3397C32.461 16.1532 32.4188 15.9694 32.34 15.8004H32.35ZM38.24 34.0004C32.77 34.0004 28.24 31.6704 27.24 26.4404H49.28C48.28 31.6704 43.72 34.0004 38.28 34.0004H38.24ZM65.24 35.6004C65.4275 35.5559 65.6088 35.4887 65.78 35.4004L73.37 31.4604C74.0492 31.0586 74.6183 30.4949 75.0266 29.8196C75.4349 29.1443 75.6697 28.3785 75.71 27.5904V17.1004C75.67 16.315 75.434 15.5522 75.0235 14.8814C74.613 14.2107 74.0411 13.6534 73.36 13.2604L65.82 9.41038C65.5711 9.28003 65.2995 9.19856 65.02 9.17038C67.595 13.0834 68.9872 17.6559 69.0298 22.34C69.0723 27.0241 67.7635 31.6212 65.26 35.5804L65.24 35.6004ZM10.44 35.6004C10.2563 35.5542 10.0784 35.4871 9.91 35.4004L2.34 31.4404C1.66082 31.0386 1.09168 30.4749 0.683368 29.7996C0.275059 29.1243 0.0402854 28.3585 0 27.5704L0 17.1004C0.0400059 16.315 0.276014 15.5522 0.686496 14.8814C1.09698 14.2107 1.66887 13.6534 2.35 13.2604L9.92 9.41038C10.1689 9.28003 10.4405 9.19856 10.72 9.17038C8.14316 13.0819 6.74819 17.6533 6.70208 22.3371C6.65597 27.0209 7.96067 31.6188 10.46 35.5804L10.44 35.6004ZM92.3 10.6504H102C105 10.6504 107.183 11.3004 108.55 12.6004C109.225 13.2426 109.757 14.0197 110.112 14.8812C110.467 15.7426 110.637 16.6691 110.61 17.6004V29.6004C110.637 30.5327 110.467 31.4602 110.11 32.3219C109.753 33.1837 109.218 33.9602 108.54 34.6004C107.167 35.9004 104.987 36.5504 102 36.5504H92.3V10.5504V10.6504ZM97.21 15.0004V32.3004H101.46C102.634 32.4253 103.811 32.0961 104.75 31.3804C105.429 30.5701 105.76 29.5238 105.67 28.4704V18.8004C105.76 17.7469 105.429 16.7007 104.75 15.8904C103.811 15.1746 102.634 14.8454 101.46 14.9704L97.21 15.0004ZM120.94 10.6804V36.6804H116V10.6804H120.94ZM131.89 36.6804H127V10.6804H143V15.0004H131.89V21.9104H142.17V26.2404H131.89V36.6204V36.6804ZM152.25 36.6804H147.33V10.6804H163.33V15.0004H152.25V21.9104H162.53V26.2404H152.25V36.6204V36.6804ZM178.6 36.6804H167.69V10.6804H177.9C182.493 10.6804 184.797 12.527 184.81 16.2204V18.9104C184.852 19.8209 184.611 20.7221 184.12 21.4904C183.552 22.2288 182.785 22.7906 181.91 23.1104C183.008 23.3081 184 23.8893 184.71 24.7504C185.393 25.6594 185.746 26.774 185.71 27.9104V30.6904C185.744 31.4995 185.597 32.3061 185.28 33.0515C184.964 33.797 184.486 34.4627 183.88 35.0004C182.372 36.1537 180.494 36.7156 178.6 36.5804V36.6804ZM180.79 30.0004V28.0004C180.823 27.6404 180.782 27.2775 180.67 26.9337C180.558 26.5899 180.378 26.2724 180.14 26.0004C179.552 25.5245 178.803 25.2951 178.05 25.3604H172.6V32.4704H177.6C178.453 32.5466 179.309 32.3468 180.04 31.9004C180.309 31.647 180.514 31.3339 180.639 30.9864C180.764 30.639 180.806 30.2669 180.76 29.9004L180.79 30.0004ZM179.9 19.1004V16.8204C179.9 15.4104 179.03 14.7004 177.31 14.7004H172.6V21.5204H177.27C179.02 21.5204 179.9 20.7204 179.9 19.1004ZM209.24 18.2504V29.0004C209.284 30.0749 209.098 31.1464 208.695 32.1432C208.291 33.1401 207.679 34.0392 206.9 34.7804C205.34 36.2604 202.843 37.0004 199.41 37.0004C195.99 37.0004 193.49 36.2704 191.93 34.8004C191.148 34.0569 190.535 33.1546 190.131 32.1541C189.728 31.1536 189.543 30.0782 189.59 29.0004V18.2504C189.546 17.1759 189.732 16.1043 190.135 15.1075C190.539 14.1107 191.151 13.2116 191.93 12.4704C193.49 11.0004 195.99 10.2704 199.41 10.2704C202.83 10.2704 205.34 11.0004 206.9 12.4704C207.679 13.2116 208.291 14.1107 208.695 15.1075C209.098 16.1043 209.284 17.1759 209.24 18.2504ZM194.5 18.5304V28.7404C194.463 29.2831 194.545 29.8274 194.74 30.3351C194.936 30.8429 195.239 31.302 195.63 31.6804C196.732 32.4498 198.071 32.804 199.41 32.6804C200.751 32.8004 202.092 32.4465 203.2 31.6804C203.6 31.2962 203.909 30.8274 204.105 30.3083C204.3 29.7893 204.377 29.233 204.33 28.6804V18.5304C204.367 17.9876 204.285 17.4434 204.09 16.9356C203.894 16.4278 203.591 15.9688 203.2 15.5904C202.046 14.9347 200.742 14.5899 199.415 14.5899C198.088 14.5899 196.784 14.9347 195.63 15.5904C195.239 15.9688 194.936 16.4278 194.74 16.9356C194.545 17.4434 194.463 17.9876 194.5 18.5304ZM219.79 36.6204V15.0004H212.54V10.6504H232V15.0004H224.7V36.6204H219.79Z" fill="#19305A"/>
</svg>
