<svg width="433" height="452" version="1.1" viewBox="0 0 433 452" xmlns="http://www.w3.org/2000/svg"><g><g><g transform="translate(0,-2)"><g><text x="239" y="79.725647" dominant-baseline="text-before-edge" fill="#b8cfe5" font-family="'Encode Sans'" font-size="15px" font-weight="500" style="line-height:30px"><tspan style="line-height:30px">Number of Employees</tspan></text></g></g><g transform="translate(0 9.1345)"><g><text transform="translate(287,29)" dominant-baseline="text-before-edge" fill="#b8d0e7" font-family="'Encode Sans'" font-size="15px" font-weight="500" style="line-height:30px"><tspan style="line-height:30px">NAICS Classification</tspan></text></g></g><g transform="translate(0,-2)"><g><text x="183" y="119.07397" dominant-baseline="text-before-edge" fill="#b8d0e6" font-family="'Encode Sans'" font-size="15px" font-weight="500" style="line-height:30px"><tspan style="line-height:30px">Alternate Names</tspan></text></g></g><g transform="translate(0,-2)"><g><text x="285.81204" y="159.37764" dominant-baseline="text-before-edge" fill="#b8cfe5" font-family="'Encode Sans'" font-size="15px" font-weight="500" style="line-height:30px"><tspan style="line-height:30px">Date Founded</tspan></text></g></g><g transform="translate(0,-2)"><g transform="translate(0 10.413)"><text transform="translate(204,188)" dominant-baseline="text-before-edge" fill="#b8cfe5" font-family="'Encode Sans'" font-size="15px" font-weight="500" style="line-height:30px"><tspan style="line-height:30px">Total Investment</tspan></text></g></g><g transform="translate(0 4.882)"><g><text transform="translate(148,227)" dominant-baseline="text-before-edge" fill="#b8d1e8" font-family="'Encode Sans'" font-size="15px" font-weight="500" style="line-height:30px"><tspan style="line-height:30px">Angel Investors &amp; Amount</tspan></text></g></g><g transform="translate(0 7.0498)"><g><text transform="translate(260,266)" dominant-baseline="text-before-edge" fill="#b8d0e6" font-family="'Encode Sans'" font-size="15px" font-weight="500" style="line-height:30px"><tspan style="line-height:30px">Seed Investors &amp; Amount</tspan></text></g></g><g transform="translate(0 12.757)"><g><text x="239" y="303" dominant-baseline="text-before-edge" fill="#b8d1e9" font-family="'Encode Sans'" font-size="15px" font-weight="500" style="line-height:30px"><tspan style="line-height:30px">Industries</tspan></text></g></g><g transform="translate(0 9.4076)"><g><text transform="translate(287,344)" dominant-baseline="text-before-edge" fill="#b7d2eb" font-family="'Encode Sans'" font-size="15px" font-weight="500" style="line-height:30px"><tspan style="line-height:30px">Twitter URL</tspan></text></g></g><g transform="matrix(-1 0 0 1 272 0)"><g><path d="M268.634 10.1v59.085s-.152 12.265-8.31 15.64c-8.159 3.375-24.69 3.272-24.69 3.272v0H53.07v0" fill="none" stroke="#3b739f" stroke-linecap="round" stroke-miterlimit="20" stroke-width="6"/></g><g><path d="M268.634 247.1v59.085s-.152 12.265-8.31 15.64c-8.159 3.375-24.69 3.272-24.69 3.272v0H53.07v0" fill="none" stroke="#3b739f" stroke-linecap="round" stroke-miterlimit="20" stroke-width="6"/></g><g><path d="M268.635 49.68v87.87s-.152 18.24-8.31 23.26c-8.159 5.019-24.69 4.865-24.69 4.865v0H3v0" fill="none" stroke="#3b739f" stroke-linecap="round" stroke-miterlimit="20" stroke-width="6"/></g><g><path d="M268.635 246.68v87.87s-.152 18.24-8.31 23.26c-8.159 5.019-24.69 4.865-24.69 4.865v0H3v0" fill="none" stroke="#3b739f" stroke-linecap="round" stroke-miterlimit="20" stroke-width="6"/></g><g><path d="M268.635 18.87v0s-.152 18.24-8.31 23.259c-8.159 5.02-24.69 4.866-24.69 4.866v0H3v0" fill="none" stroke="#3b739f" stroke-linecap="round" stroke-miterlimit="20" stroke-width="6"/></g><g><path d="m268.64 9.68v87.87s-.152 18.24-8.31 23.26c-8.159 5.019-24.69 4.865-24.69 4.865v0h-125.86v0" fill="none" stroke="#3b739f" stroke-linecap="round" stroke-miterlimit="20" stroke-width="6"/></g><g><path d="M268.637 332.68v87.87s-.152 18.24-8.31 23.26c-8.159 5.019-24.69 4.865-24.69 4.865v0H85.08v0" fill="none" stroke="#3b739f" stroke-linecap="round" stroke-miterlimit="20" stroke-width="6"/></g><g><path d="M268.637 89v87.87s-.152 18.24-8.31 23.26c-8.159 5.019-24.69 4.865-24.69 4.865v0H85.08v0" fill="none" stroke="#3b739f" stroke-linecap="round" stroke-miterlimit="20" stroke-width="6"/></g><g><path d="M268.635 126v87.87s-.152 18.24-8.31 23.26c-8.159 5.019-24.69 4.865-24.69 4.865v0H143.5v0" fill="none" stroke="#3b739f" stroke-linecap="round" stroke-miterlimit="20" stroke-width="6"/></g><g><path d="M268.635 166v87.87s-.152 18.24-8.31 23.26c-8.159 5.019-24.69 4.865-24.69 4.865v0H31v0" fill="none" stroke="#3b739f" stroke-linecap="round" stroke-miterlimit="20" stroke-width="6"/></g></g><g><path d="M3.36 12V3" fill="none" stroke="#3b739f" stroke-linecap="square" stroke-miterlimit="20" stroke-width="6"/></g></g></g></svg>
