<svg width="219" height="164" version="1.1" viewBox="0 0 219 164" xmlns="http://www.w3.org/2000/svg"><g><g transform="translate(0,2)"><g><text x="112" y="74" dominant-baseline="text-before-edge" fill="#b8cfe5" font-family="'Encode Sans'" font-size="10px" font-weight="500" style="line-height:30px"><tspan style="line-height:30px">Number of Employees</tspan></text></g></g><g transform="translate(0,10)"><g><text transform="translate(129,24)" dominant-baseline="text-before-edge" fill="#b8d0e7" font-family="'Encode Sans'" font-size="10px" font-weight="500" style="line-height:30px"><tspan style="line-height:30px">NAICS Classification</tspan></text></g></g><g transform="translate(0,10)"><g><text transform="translate(85,104)" dominant-baseline="text-before-edge" fill="#b8d0e6" font-family="'Encode Sans'" font-size="10px" font-weight="500" style="line-height:30px"><tspan style="line-height:30px">Alternate Names</tspan></text></g></g><g transform="translate(0,10)"><g><text transform="translate(133,144)" dominant-baseline="text-before-edge" fill="#b8cfe5" font-family="'Encode Sans'" font-size="10px" font-weight="500" style="line-height:30px"><tspan style="line-height:30px">Date Founded</tspan></text></g></g><g transform="matrix(-1 0 0 1 124 0)"><g><path d="M120.64 4.1v59.085s-.067 12.265-3.662 15.64c-3.596 3.375-10.881 3.272-10.881 3.272v0H25.64v0" fill="none" stroke="#3b739f" stroke-linecap="round" stroke-miterlimit="20" stroke-width="6"/></g><g><path d="M120.64 43.68v87.87s-.067 18.24-3.66 23.26c-3.594 5.019-10.875 4.865-10.875 4.865v0H3.64v0" fill="none" stroke="#3b739f" stroke-linecap="round" stroke-miterlimit="20" stroke-width="6"/></g><g><path d="M120.64 12.87v0s-.067 18.24-3.66 23.259c-3.594 5.02-10.875 4.866-10.875 4.866v0H3.64v0" fill="none" stroke="#3b739f" stroke-linecap="round" stroke-miterlimit="20" stroke-width="6"/></g><g><path d="M120.64 3.68v87.87s-.067 18.24-3.662 23.26c-3.595 5.019-10.88 4.865-10.88 4.865v0H50.64v0" fill="none" stroke="#3b739f" stroke-linecap="round" stroke-miterlimit="20" stroke-width="6"/></g></g></g></svg>
