<svg xmlns="http://www.w3.org/2000/svg" width="219" height="164" viewBox="0 0 219 164">
    <g>
        <g>
            <g>
                <text dominant-baseline="text-before-edge" style="line-height:30px;font-kerning:normal" fill="#b8cfe5" font-family="Encode Sans" font-weight="500" font-size="10" transform="translate(112 66)">
                    <tspan style="line-height:30px;font-kerning:normal">Number of Employees</tspan>
                </text>
            </g>
        </g>
        <g>
            <g>
                <text dominant-baseline="text-before-edge" style="line-height:30px;font-kerning:normal" fill="#b8d0e7" font-family="Encode Sans" font-weight="500" font-size="10" transform="translate(129 24)">
                    <tspan style="line-height:30px;font-kerning:normal">NAICS Classification</tspan>
                </text>
            </g>
        </g>
        <g>
            <g>
                <text dominant-baseline="text-before-edge" style="line-height:30px;font-kerning:normal" fill="#b8d0e6" font-family="Encode Sans" font-weight="500" font-size="10" transform="translate(85 104)">
                    <tspan style="line-height:30px;font-kerning:normal">Alternate Names</tspan>
                </text>
            </g>
        </g>
        <g>
            <g>
                <text dominant-baseline="text-before-edge" style="line-height:30px;font-kerning:normal" fill="#b8cfe5" font-family="Encode Sans" font-weight="500" font-size="10" transform="translate(133 144)">
                    <tspan style="line-height:30px;font-kerning:normal">Date Founded</tspan>
                </text>
            </g>
        </g>
        <g transform="matrix(-1 0 0 1 124 0)">
            <g>
                <path fill="none" stroke="#3b739f" stroke-linecap="round" stroke-miterlimit="20" stroke-width="6" d="M120.64 4.1v59.085s-.067 12.265-3.662 15.64c-3.596 3.375-10.881 3.272-10.881 3.272v0H25.64v0" />
            </g>
            <g>
                <path fill="none" stroke="#3b739f" stroke-linecap="round" stroke-miterlimit="20" stroke-width="6" d="M120.64 43.68v87.87s-.067 18.24-3.66 23.26c-3.594 5.019-10.875 4.865-10.875 4.865v0H3.64v0" />
            </g>
            <g>
                <path fill="none" stroke="#3b739f" stroke-linecap="round" stroke-miterlimit="20" stroke-width="6" d="M120.64 12.87v0s-.067 18.24-3.66 23.259c-3.594 5.02-10.875 4.866-10.875 4.866v0H3.64v0" />
            </g>
            <g>
                <path fill="none" stroke="#3b739f" stroke-linecap="round" stroke-miterlimit="20" stroke-width="6" d="M120.64 3.68v87.87s-.067 18.24-3.662 23.26c-3.595 5.019-10.88 4.865-10.88 4.865v0H50.64v0" />
            </g>
        </g>
    </g>
</svg>